<svg xmlns="http://www.w3.org/2000/svg" width="167.92" height="128"><g data-name="Layer 2"><g data-name="Layer 1"><path fill="#ff1e15" d="M0 0h167.92v128H0z"/><path d="M128.17 61.41c-.82 0-1.54.67-1.54 1s.77 1 3.7 1.72 4.41 1.49 4.41 3.27c0 3.26-3.93 4.13-6.72 4.13s-6.33-.82-6.33-2.88 2.06-2.79 3.84-3.41a1.73 1.73 0 0 1-1.4-1.68c0-1.2 1.54-2.4 3-2.88zM127 65.68c-.67 0-3 1.06-3 2.83s2.21 2 4.13 2c3 0 4.32-1 4.32-2.26s-.58-1.48-2.21-1.87zm9.6-10.32a6.77 6.77 0 0 1-6.6 6.34 10.14 10.14 0 0 1-1.73-.24c-1.49-.58-1.92-1.54-1.92-3.27a6.48 6.48 0 0 1 6.53-6.09 3.5 3.5 0 0 1 3.12 1.48 3.07 3.07 0 0 1 .57 1.78m-7.05 5.47c2.69 0 4.56-4.13 4.56-6.24 0-1-.43-1.63-1.44-1.63s-4.27 2.93-4.27 6.34c0 .91.33 1.53 1.15 1.53m5.13-8.25a5.69 5.69 0 0 1 3.41-1.68c.77 0 1.25.43 1.25 1.05s-.38 1.15-1.3 1.15-1.34-.38-1.87-.38a1.12 1.12 0 0 0-.91.48zM27.27 60.45c0 2.73.72 3.6 3.07 3.74h1.87v2.16h-17v-2.16H18c2.35 0 3.12-1 3.12-3.74v-34c0-2.79-.77-3.6-3.12-3.8h-2.78v-2.19h17.43v2h-2.21c-2.35 0-3.07 1-3.07 3.79zm-10.46 34v-1.27h1.44c.72 0 1.05-.38 1.05-1.34v-14c0-1.1-.24-1.34-1.1-1.44h-1.44v-1.22h8.78v1.25H24c-.87 0-1.06.39-1.06 1.54v13.29c0 1.06.29 1.73 1.58 1.73h2.93c2.79 0 4.47-1.49 6.24-4.8l1.25.24-1.73 6zm133.29 12.7H17.19v3.27H150.1zm0-6.53H17.19v1.68H150.1zM25 43.89l15.16-14.4c2.31-2.16 3.75-3.75 3.75-5s-1.25-1.87-3-2.07h-1.3v-2.2h16.08v2.21h-1.2a12.31 12.31 0 0 0-7 3.75L25.16 47.49zm8-4.08l17.86 21A9.59 9.59 0 0 0 56.12 64l2.11.29v2.25H46.66L27.8 44.37zm7.54 52.32a10.33 10.33 0 0 1-3.07-7.49 10.08 10.08 0 1 1 10 10.27 10.29 10.29 0 0 1-7-2.78m2.11-1.83a5.09 5.09 0 0 0 4.8 3c5.18 0 6-5.28 6-8.69s-.87-8.64-6-8.64-5.9 5.33-5.9 8.64a13.89 13.89 0 0 0 1 5.66M60 42.59V41.1h1.58c1 0 1.3-.43 1.3-1.72v-15.7c0-1.44-.29-1.58-1.3-1.78H60v-1.44h10.23v1.44h-1.78c-1 0-1.24.44-1.24 1.78v15.7c0 1.2 0 1.58 1.24 1.72a13.22 13.22 0 0 0 1.78 0v1.49zm0 51.84v-1.29h1.4c.86 0 1.1-.44 1.1-1.59v-14.4A3.68 3.68 0 0 0 60 76v-1.2h5.76l11.29 13.87V77.73c0-1.2-.24-1.44-1.11-1.54H74.6v-1.25h7v1.25H80c-.81 0-1 .39-1 1.54v16.8h-1.71L64.57 79.17v12.19c0 1.15.28 1.54 1.1 1.58h1.49v1.49zm14-29.61a7.59 7.59 0 0 1-5.33 2.11c-4.08 0-6.67-2-6.67-6.15a13.73 13.73 0 0 1 12.93-13.63 9.11 9.11 0 0 1 4.8 1.49l.82-1h1l-2.25 6.14h-.62v-1.4c0-2.2-.91-4.12-3.36-4.12-4.8 0-10 6.14-10 13.1a3.9 3.9 0 0 0 3.43 4.3 4.1 4.1 0 0 0 .61 0 8.9 8.9 0 0 0 7-5.28h1.16l-2.36 6.38H74zm0-22.23V41.1h1.59c1 0 1.24-.52 1.24-1.87V23.06a3.76 3.76 0 0 0-2.83-1.4v-1.29h6.6L93.41 36V23.82c0-1.44-.28-1.72-1.34-1.92h-1.54v-1.44h8.31v1.44H97c-.91 0-1.15.58-1.15 1.92V43h-2l-14.4-17.5v13.78c0 1.34.28 1.82 1.24 1.87h1.73v1.49zm10.23 24c-1.92 0-3.75-1-3.75-4.32 0-4.13 3.55-10.41 8.59-10.41 1.88 0 3.65.81 3.65 4.22s-3.55 10.51-8.49 10.51m0-1c2.92 0 6.24-8.12 6.24-10.9 0-.86 0-1.73-1.4-1.73-2.59 0-6.28 6.43-6.28 10.61 0 1.3.43 2 1.44 2m0 28.8v-1.28h1.44c.86 0 1 0 1-1.35V77.68c0-1.15 0-1.25-1.1-1.34h-1.32V75h8.59c7 0 11.61 3.7 11.61 9.6 0 8.11-6 9.94-12.33 9.94zm6.14-3.6c0 1.48.58 2.11 2.54 2.11 3.75 0 7.4-1.73 7.4-8.4a7.35 7.35 0 0 0-6.52-8.09 6.86 6.86 0 0 0-1.36 0h-2.04zM100.33 49c0-.53 0-.87-.39-1h-1.25l.31-.9h4.51v.39l-6.78 15.69c0 .29-.77 1.64-.48 1.64a9.68 9.68 0 0 0 3.93-3.12l.72.62a10.54 10.54 0 0 1-6.29 4.42 1.1 1.1 0 0 1-1.24-1.06 4.14 4.14 0 0 1 .28-1.3zm8.67 0c0-.53 0-.87-.39-1h-1.25l.29-.92h4.51v.39l-6.72 15.69c0 .29-.81 1.64-.52 1.64a9.68 9.68 0 0 0 3.93-3.12l.72.62a10.54 10.54 0 0 1-6.29 4.42 1.1 1.1 0 0 1-1.28-1.04 4.14 4.14 0 0 1 .28-1.3zm6.24-15.7V32h10v1.3h-1.58c-.87 0-1.11.38-1.11 1.63v4.51A15.43 15.43 0 0 1 112.9 43a10.91 10.91 0 0 1-11.55-10.21v-.74a11.76 11.76 0 0 1 11.41-12.1 7.63 7.63 0 0 1 .83 0 12.89 12.89 0 0 1 7.3 2.2l.38-1.58H123v6.77h-1.58a8.31 8.31 0 0 0-7.83-5.52c-5.33 0-7.63 4.51-7.63 10.32 0 3.31 1.15 9.6 7.3 9.6 2.44 0 5.23-.87 5.23-3.17v-3c0-.76 0-1.58-1.25-1.63zM111.08 92a10.19 10.19 0 0 1-3.08-7.46 10.09 10.09 0 1 1 3.08 7.46M121 62.9a9.08 9.08 0 0 1-6.57 3.84 2.89 2.89 0 0 1-3.12-2.62 2.09 2.09 0 0 1 0-.5c0-4.8 4.22-11.62 9.6-11.62 2.06 0 2.88.91 2.88 2 0 3.21-3.84 5.8-9.22 7a11.78 11.78 0 0 0-.33 2.64c0 1.06.43 1.64 1.24 1.64a7.4 7.4 0 0 0 4.8-3.12zm-7.87 27.31a5.13 5.13 0 0 0 4.8 3c5.09 0 6-5.28 6-8.69s-.86-8.64-6-8.64-6 5.33-6 8.64a14.33 14.33 0 0 0 1.11 5.67m1.63-30.39c3.79-1 6.57-3.5 6.57-5.8 0-.77-.43-1-1.1-1-1.73 0-3.84 3-5.47 6.81m11.9-35c.82-.28 2.79-1.29 2.79-3 0-.72-.29-.91-.68-.91h-1a1.69 1.69 0 0 1-1.54-1.68 1.92 1.92 0 0 1 1.86-2h.25c1.16 0 2.69 1.2 2.69 3.74a5 5 0 0 1-3.69 4.8zm4.51 69.65v-1.32h1.4c.86 0 1.1-.44 1.1-1.59v-14.4a3.48 3.48 0 0 0-2.5-1.2V74.8h5.52l11.33 13.87V77.73c0-1.2 0-1.44-1.1-1.54h-1.39v-1.25h7.15v1.25H151c-.76 0-1 .39-1 1.54v16.8h-1.64l-12.71-15.36v12.19c0 1.15.29 1.54 1.06 1.58h1.58v1.49zm2.12-51.65l-.29-7.39h1.68a7.19 7.19 0 0 0 6.77 6 3.88 3.88 0 0 0 4.35-3.42v-.37c0-2.78-2.25-3.65-4.8-4.8l-1.39-.48c-3.12-1.06-5.71-2.45-5.71-6.05a6.86 6.86 0 0 1 6.9-6.83h.44a7.58 7.58 0 0 1 4.8 1.87l.48-1.35H148v6.58h-1.73c-.53-2.3-1.82-5.28-5.28-5.28a3.32 3.32 0 0 0-3.68 2.9 3.5 3.5 0 0 0 0 .56c0 2.4 2.12 3.21 4.56 4l1.64.53c2.92 1.1 5.85 2.64 5.85 7a7.68 7.68 0 0 1-8.4 6.67 10.8 10.8 0 0 1-6-1.82l-.33 1.48zM147.61 63a9.09 9.09 0 0 1-6.61 3.83 2.88 2.88 0 0 1-3.12-2.62 4.17 4.17 0 0 1 0-.5c0-4.8 4.22-11.61 9.6-11.61 2 0 2.88.91 2.88 2 0 3.22-3.84 5.81-9.22 7a11.71 11.71 0 0 0-.33 2.64c0 1.06.43 1.63 1.25 1.63a7.47 7.47 0 0 0 4.8-3.12zm-6.24-3.07c3.79-1.06 6.62-3.5 6.62-5.81 0-.77-.48-1-1.15-1-1.73 0-3.84 3-5.47 6.82" fill="#fff"/></g></g></svg>